<?xml version="1.0" standalone="no"?>
<!DOCTYPE svg PUBLIC "-//W3C//DTD SVG 20010904//EN"
 "http://www.w3.org/TR/2001/REC-SVG-20010904/DTD/svg10.dtd">
<svg version="1.0" xmlns="http://www.w3.org/2000/svg"
 width="900.000000pt" height="900.000000pt" viewBox="0 0 900.000000 900.000000"
 preserveAspectRatio="xMidYMid meet">
<metadata>
Created by potrace 1.10, written by Peter Selinger 2001-2011
</metadata>
<g transform="translate(0.000000,900.000000) scale(0.100000,-0.100000)"
fill="#000000" stroke="none">
<path d="M5959 8216 c-84 -20 -159 -103 -145 -160 9 -35 58 -103 97 -133 102
-79 179 -145 179 -153 0 -13 -21 -33 -106 -100 -130 -103 -217 -198 -256 -280
-58 -123 -68 -175 -68 -366 0 -93 5 -189 11 -214 6 -25 14 -70 19 -100 9 -68
22 -121 75 -315 38 -138 45 -177 45 -248 0 -65 -4 -84 -24 -116 -30 -46 -66
-76 -110 -91 -35 -11 -86 0 -166 37 -99 46 -155 65 -330 116 -101 29 -226 55
-445 93 -134 23 -634 23 -817 0 -165 -21 -302 -44 -364 -62 -28 -8 -59 -14
-70 -14 -10 0 -39 -6 -64 -14 -25 -8 -74 -24 -110 -35 -36 -11 -90 -30 -120
-41 -30 -12 -67 -25 -81 -30 -14 -4 -34 -12 -45 -18 -10 -6 -53 -27 -94 -47
-167 -82 -416 -241 -491 -314 -9 -9 -27 -25 -40 -36 -396 -337 -713 -794 -905
-1307 -37 -98 -63 -175 -74 -213 -24 -82 -40 -133 -49 -160 -9 -28 -17 -58
-58 -220 -28 -115 -41 -170 -57 -245 -99 -472 -169 -942 -164 -1093 3 -83 5
-89 29 -104 24 -14 29 -14 85 12 32 16 75 41 95 57 20 15 39 28 42 28 3 0 35
20 71 45 37 25 68 45 71 45 2 0 21 12 42 26 21 14 61 37 88 50 28 14 57 29 65
33 8 5 47 24 85 41 39 18 81 38 95 45 14 6 52 20 85 30 33 10 77 24 98 31 49
18 152 18 185 0 35 -18 146 -59 207 -76 34 -10 172 -56 225 -75 19 -7 62 -20
95 -30 33 -9 80 -23 105 -30 25 -7 57 -16 73 -19 26 -6 27 -8 26 -69 -2 -64
11 -144 36 -232 23 -81 46 -166 62 -225 8 -30 21 -75 28 -100 7 -25 20 -74 30
-110 10 -36 23 -85 30 -110 8 -25 21 -72 30 -105 9 -33 23 -80 31 -105 22 -71
20 -75 -53 -111 -87 -42 -164 -92 -202 -131 -25 -26 -31 -40 -31 -75 0 -36 4
-45 23 -52 17 -6 1313 -9 1363 -2 40 5 12 75 -50 123 -94 75 -213 111 -447
137 -36 4 -71 11 -77 15 -7 4 -38 11 -69 16 -106 18 -114 26 -147 155 -3 11
-15 52 -26 90 -12 39 -25 86 -29 105 -5 19 -16 60 -24 90 -24 86 -57 208 -78
285 -10 39 -19 90 -19 115 l0 46 98 64 c53 36 101 67 107 69 5 2 27 17 49 33
l39 28 274 0 273 0 -6 -69 c-6 -58 -3 -76 14 -113 12 -23 32 -54 45 -68 12
-14 36 -43 52 -65 17 -22 32 -42 36 -45 3 -3 41 -52 85 -109 43 -57 90 -118
104 -136 36 -46 256 -339 308 -410 25 -33 47 -66 49 -73 6 -14 -24 -52 -41
-52 -21 0 -114 -89 -140 -134 -32 -55 -34 -92 -5 -101 12 -4 265 -4 563 0 693
8 815 12 831 25 21 17 6 47 -50 98 -73 66 -146 99 -275 125 -68 14 -118 20
-363 47 -125 14 -167 32 -211 91 -21 28 -44 58 -51 67 -77 97 -120 152 -236
307 -146 194 -213 293 -248 367 -25 53 -21 71 26 108 16 12 89 81 163 154 138
135 153 144 280 185 85 26 128 41 167 58 17 7 36 13 41 13 6 0 23 6 39 14 15
8 53 25 83 36 108 43 257 115 331 159 19 11 43 25 54 30 11 5 37 21 58 35 21
14 40 26 42 26 2 0 34 21 72 46 61 41 99 71 182 139 14 11 76 71 139 134 123
123 231 260 305 386 26 44 52 87 57 95 21 35 110 221 110 231 0 6 7 23 15 37
18 34 64 166 74 213 4 19 10 40 14 46 11 18 38 157 52 268 35 278 9 558 -81
870 -18 65 -79 253 -92 285 -5 14 -18 45 -27 70 -10 25 -24 60 -32 77 -7 18
-20 49 -28 68 -19 45 -41 95 -60 140 -9 19 -22 51 -30 70 -29 69 -43 101 -75
170 -145 320 -152 350 -82 376 29 11 52 -4 52 -33 0 -21 52 -121 79 -152 32
-36 69 -48 109 -35 103 33 172 163 173 324 0 57 -5 103 -15 126 -8 19 -12 39
-8 45 4 5 113 10 257 11 271 2 305 7 305 47 0 62 -104 193 -208 263 -31 20
-102 60 -157 87 -55 27 -108 61 -119 75 -73 94 -263 256 -342 290 -30 13 -61
56 -70 94 -9 43 -62 152 -101 208 -41 59 -126 136 -172 156 -95 41 -210 52
-302 29z m506 -621 c22 -8 46 -15 53 -15 21 0 121 -70 167 -115 46 -47 145
-189 145 -209 0 -8 -19 -29 -42 -48 -82 -63 -93 -73 -144 -123 -28 -27 -69
-77 -92 -111 -96 -144 -225 -211 -344 -180 -63 17 -88 29 -153 78 -58 43 -108
100 -136 154 -15 30 -19 59 -19 132 0 93 4 111 48 202 45 91 151 190 247 229
62 25 209 28 270 6z m-2386 -1849 c28 -45 27 -88 -3 -123 -21 -25 -31 -28 -81
-27 -50 0 -59 3 -80 30 -34 41 -33 88 4 125 25 25 37 29 84 29 52 0 57 -2 76
-34z m652 -55 c58 -58 26 -147 -56 -157 -54 -8 -87 7 -109 48 -37 68 9 138 89
138 38 0 52 -5 76 -29z m-1360 -85 c64 -44 74 -111 24 -162 -17 -17 -35 -24
-64 -24 -32 0 -44 6 -70 35 -25 28 -31 45 -31 79 0 37 5 48 31 70 38 32 64 33
110 2z m1916 -96 c56 -20 72 -107 29 -157 -21 -25 -31 -28 -79 -27 -65 0 -80
10 -96 63 -26 89 51 154 146 121z m-1478 -291 c35 -41 22 -106 -27 -146 -9 -7
-35 -13 -58 -13 -35 0 -47 5 -73 35 -46 53 -38 106 24 143 33 20 111 9 134
-19z m617 -43 c61 -61 36 -141 -52 -165 -32 -9 -43 -7 -70 10 -60 37 -61 101
-1 167 32 34 81 30 123 -12z m-1739 12 c52 -23 65 -42 61 -89 -3 -38 -8 -47
-44 -72 -49 -34 -87 -31 -128 9 -34 35 -42 76 -20 113 29 48 77 63 131 39z
m3033 -224 c0 -111 -8 -161 -47 -304 -8 -30 -21 -68 -29 -83 -8 -16 -14 -34
-14 -41 0 -32 -96 -195 -183 -311 -134 -178 -408 -412 -602 -515 -11 -6 -33
-19 -50 -29 -16 -11 -65 -38 -107 -60 -42 -22 -85 -44 -95 -50 -43 -24 -154
-71 -166 -71 -7 0 -18 -5 -24 -11 -6 -6 -26 -14 -44 -19 -19 -5 -88 -27 -154
-49 -129 -44 -183 -60 -285 -86 -36 -9 -88 -23 -116 -31 -28 -8 -61 -14 -73
-14 -12 0 -47 -6 -79 -14 -89 -23 -355 -70 -442 -79 -19 -3 -66 -9 -105 -15
-204 -32 -627 -72 -752 -72 -103 0 -138 14 -65 25 62 10 74 12 172 35 52 12
115 26 140 30 25 4 65 12 90 18 43 11 112 25 275 57 188 37 233 47 275 57 25
6 65 14 90 18 25 4 63 12 85 18 22 6 76 18 120 27 44 9 100 23 125 31 25 8 53
14 64 14 10 0 40 7 67 15 27 8 71 22 98 30 27 8 56 15 65 15 8 0 30 6 48 14
18 7 60 21 93 31 202 58 548 212 710 316 17 10 37 22 45 26 21 10 136 89 205
141 103 78 335 319 398 414 58 87 131 224 147 276 5 15 20 59 34 97 14 39 26
79 26 90 0 17 25 136 36 173 2 7 8 10 14 7 6 -4 10 -55 10 -121z m-627 8 c21
-22 27 -38 27 -74 0 -40 -5 -50 -35 -77 -57 -50 -126 -36 -161 32 -20 37 -12
67 27 112 26 30 38 35 73 35 33 0 48 -6 69 -28z m-1904 -53 c34 -12 61 -53 61
-92 0 -13 -10 -39 -23 -58 -20 -30 -28 -34 -73 -37 -42 -2 -53 1 -73 22 -12
13 -25 41 -28 63 -6 47 22 88 70 102 18 5 32 10 33 10 1 1 15 -4 33 -10z
m-890 -285 c26 -21 31 -33 31 -69 0 -64 -37 -105 -95 -105 -35 0 -49 6 -74 31
-91 90 40 226 138 143z m1469 12 c46 -24 65 -52 65 -98 0 -35 -6 -47 -33 -71
-29 -26 -38 -29 -79 -24 -73 8 -95 51 -70 139 6 24 20 43 37 53 34 18 47 18
80 1z m718 -117 c36 -22 52 -68 39 -111 -11 -34 -23 -46 -62 -59 -54 -18 -106
10 -128 68 -14 37 -15 49 -5 74 7 16 20 34 29 39 28 16 92 11 127 -11z m-1683
-160 c30 -14 57 -59 57 -96 0 -61 -54 -99 -122 -88 -33 6 -40 12 -58 53 -24
54 -20 83 15 118 26 26 68 31 108 13z m543 -260 c78 -48 44 -189 -46 -189 -16
0 -42 13 -65 33 -33 29 -38 39 -39 79 -2 87 72 125 150 77z m733 -33 c35 -35
37 -105 4 -138 -31 -30 -114 -31 -144 -1 -25 25 -36 101 -19 132 25 48 114 52
159 7z m-2073 -57 c19 -18 24 -32 24 -74 0 -60 -18 -83 -71 -91 -51 -8 -85 10
-110 57 -18 37 -20 47 -10 81 7 24 21 43 34 48 36 16 106 5 133 -21z m563
-221 c76 -81 -5 -201 -103 -154 -67 32 -90 114 -45 162 18 19 33 24 70 24 41
0 52 -5 78 -32z m-754 -350 c57 -44 62 -111 12 -165 -45 -50 -140 -15 -155 57
-13 57 -1 90 38 111 45 25 71 24 105 -3z"/>
<path d="M6370 7372 c-94 -46 -55 -203 50 -202 52 1 110 58 110 108 0 37 -32
82 -69 98 -42 17 -48 17 -91 -4z"/>
</g>
</svg>
