<?xml version="1.0" encoding="UTF-8" standalone="no"?><!DOCTYPE svg PUBLIC "-//W3C//DTD SVG 1.1//EN" "http://www.w3.org/Graphics/SVG/1.1/DTD/svg11.dtd"><svg width="100%" height="100%" viewBox="0 0 3750 3750" version="1.1" xmlns="http://www.w3.org/2000/svg" xmlns:xlink="http://www.w3.org/1999/xlink" xml:space="preserve" xmlns:serif="http://www.serif.com/" style="fill-rule:evenodd;clip-rule:evenodd;stroke-linejoin:round;stroke-miterlimit:2;"><g><path d="M2788.77,6.147c-43.654,10.394 -82.631,53.528 -75.355,83.151c4.677,18.189 30.142,53.528 50.41,69.119c53.009,41.055 93.025,75.355 93.025,79.512c-0,6.756 -10.914,17.15 -55.087,51.969c-67.56,53.529 -112.773,102.899 -133.041,145.514c-30.142,63.922 -35.339,90.946 -35.339,190.207c-0,48.331 2.598,98.221 5.716,111.214c3.118,12.992 7.276,36.378 9.874,51.969c4.678,35.339 11.434,62.882 38.977,163.702c19.749,71.718 23.386,91.986 23.386,128.884c0,33.78 -2.078,43.654 -12.472,60.284c-15.591,23.906 -34.3,39.496 -57.166,47.292c-18.189,5.716 -44.694,-0 -86.269,-19.229c-51.449,-23.906 -80.552,-33.78 -171.498,-60.284c-52.489,-15.071 -117.45,-28.583 -231.262,-48.331c-69.639,-11.953 -329.484,-11.953 -424.588,-0c-85.749,10.913 -156.946,22.866 -189.167,32.22c-14.551,4.158 -30.662,7.276 -36.379,7.276c-5.196,0 -20.267,3.118 -33.26,7.276c-12.992,4.157 -38.457,12.472 -57.166,18.189c-18.709,5.717 -46.772,15.591 -62.363,21.307c-15.59,6.237 -34.819,12.993 -42.095,15.591c-7.275,2.079 -17.669,6.236 -23.386,9.354c-5.197,3.119 -27.543,14.032 -48.851,24.426c-86.788,42.615 -216.191,125.245 -255.168,163.183c-4.677,4.677 -14.031,12.992 -20.787,18.709c-205.798,175.136 -370.54,412.634 -470.321,679.236c-19.228,50.929 -32.74,90.946 -38.457,110.694c-12.472,42.614 -20.787,69.119 -25.465,83.15c-4.677,14.552 -8.834,30.142 -30.142,114.332c-14.551,59.765 -21.307,88.348 -29.622,127.325c-51.449,245.294 -87.828,489.548 -85.229,568.022c1.559,43.134 2.598,46.252 15.071,54.047c12.472,7.276 15.071,7.276 44.173,-6.236c16.631,-8.315 38.977,-21.307 49.371,-29.622c10.394,-7.796 20.268,-14.552 21.827,-14.552c1.559,0 18.189,-10.393 36.898,-23.386c19.229,-12.992 35.339,-23.386 36.898,-23.386c1.04,0 10.914,-6.236 21.827,-13.512c10.914,-7.275 31.701,-19.228 45.733,-25.984c14.551,-7.276 29.622,-15.071 33.78,-17.15c4.157,-2.598 24.425,-12.473 44.174,-21.307c20.268,-9.355 42.095,-19.749 49.37,-23.386c7.276,-3.119 27.024,-10.394 44.174,-15.591c17.15,-5.197 40.016,-12.473 50.93,-16.111c25.464,-9.354 78.993,-9.354 96.142,0c18.19,9.355 75.875,30.662 107.576,39.497c17.67,5.197 89.387,29.103 116.931,38.977c9.874,3.638 32.221,10.394 49.371,15.591c17.149,4.677 41.575,11.952 54.567,15.59c12.992,3.638 29.622,8.315 37.937,9.874c13.512,3.118 14.032,4.158 13.512,35.859c-1.039,33.26 5.717,74.835 18.709,120.568c11.953,42.095 23.906,86.269 32.221,116.931c4.158,15.59 10.914,38.977 14.551,51.969c3.638,12.992 10.394,38.457 15.591,57.166c5.197,18.709 11.953,44.174 15.591,57.166c4.157,12.992 10.913,37.418 15.591,54.567c4.677,17.15 11.953,41.576 16.11,54.568c11.433,36.898 10.394,38.977 -27.544,57.686c-45.213,21.827 -85.229,47.811 -104.977,68.079c-12.992,13.512 -16.111,20.788 -16.111,38.977c0,18.709 2.079,23.386 11.953,27.024c8.835,3.118 682.354,4.677 708.339,1.039c20.788,-2.598 6.236,-38.977 -25.985,-63.922c-48.85,-38.977 -110.694,-57.685 -232.301,-71.197c-18.709,-2.079 -36.898,-5.717 -40.017,-7.796c-3.637,-2.079 -19.748,-5.716 -35.858,-8.315c-55.087,-9.354 -59.245,-13.512 -76.395,-80.552c-1.559,-5.717 -7.795,-27.024 -13.512,-46.772c-6.236,-20.268 -12.992,-44.694 -15.071,-54.568c-2.598,-9.874 -8.315,-31.181 -12.472,-46.772c-12.473,-44.693 -29.623,-108.096 -40.536,-148.112c-5.197,-20.268 -9.874,-46.772 -9.874,-59.764l-0,-23.906l50.929,-33.26c27.544,-18.709 52.489,-34.819 55.607,-35.859c2.599,-1.039 14.032,-8.835 25.465,-17.15l20.268,-14.551l284.271,0l-3.118,35.859c-3.118,30.142 -1.559,39.496 7.275,58.725c6.237,11.953 16.631,28.063 23.387,35.339c6.236,7.275 18.708,22.346 27.023,33.78c8.835,11.433 16.631,21.827 18.709,23.386c1.559,1.559 21.308,27.024 44.174,56.646c22.347,29.622 46.772,61.324 54.048,70.678c18.709,23.906 133.041,176.175 160.065,213.073c12.992,17.15 24.425,34.3 25.465,37.938c3.118,7.275 -12.473,27.024 -21.308,27.024c-10.913,-0 -59.245,46.252 -72.757,69.638c-16.63,28.583 -17.669,47.812 -2.598,52.489c6.236,2.079 137.718,2.079 292.586,-0c360.146,-4.158 423.548,-6.236 431.863,-12.992c10.914,-8.835 3.118,-24.426 -25.984,-50.93c-37.938,-34.3 -75.875,-51.449 -142.915,-64.961c-35.339,-7.276 -61.324,-10.394 -188.648,-24.426c-64.962,-7.276 -86.789,-16.63 -109.655,-47.292c-10.914,-14.551 -22.866,-30.142 -26.504,-34.819c-40.016,-50.41 -62.363,-78.993 -122.647,-159.545c-75.875,-100.82 -110.694,-152.27 -128.884,-190.727c-12.992,-27.543 -10.913,-36.898 13.512,-56.126c8.315,-6.237 46.253,-42.095 84.71,-80.033c71.717,-70.158 79.513,-74.835 145.513,-96.142c44.174,-13.512 66.521,-21.308 86.789,-30.143c8.835,-3.637 18.709,-6.755 21.307,-6.755c3.118,-0 11.953,-3.119 20.268,-7.276c7.795,-4.158 27.544,-12.992 43.134,-18.709c56.127,-22.347 133.561,-59.764 172.018,-82.631c9.874,-5.716 22.347,-12.992 28.063,-15.591c5.717,-2.598 19.229,-10.913 30.142,-18.189c10.914,-7.275 20.788,-13.512 21.827,-13.512c1.04,0 17.67,-10.913 37.418,-23.906c31.701,-21.307 51.45,-36.898 94.584,-72.237c7.276,-5.716 39.496,-36.898 72.237,-69.638c63.922,-63.922 120.049,-135.12 158.506,-200.601c13.512,-22.866 27.024,-45.213 29.622,-49.37c10.914,-18.19 57.166,-114.852 57.166,-120.049c-0,-3.118 3.638,-11.953 7.795,-19.229c9.355,-17.669 33.261,-86.268 38.457,-110.694c2.079,-9.874 5.197,-20.787 7.276,-23.905c5.717,-9.355 19.748,-81.592 27.024,-139.278c18.189,-144.474 4.677,-289.987 -42.095,-452.131c-9.354,-33.78 -41.055,-131.481 -47.811,-148.112c-2.599,-7.275 -9.355,-23.386 -14.032,-36.378c-5.197,-12.992 -12.473,-31.181 -16.63,-40.016c-3.638,-9.354 -10.394,-25.465 -14.552,-35.339c-9.874,-23.386 -21.307,-49.371 -31.181,-72.757c-4.677,-9.874 -11.433,-26.504 -15.591,-36.378c-15.071,-35.859 -22.346,-52.489 -38.977,-88.348c-75.355,-166.301 -78.993,-181.891 -42.614,-195.403c15.071,-5.717 27.024,2.078 27.024,17.149c-0,10.914 27.024,62.883 41.055,78.993c16.63,18.709 35.859,24.946 56.647,18.19c53.528,-17.15 89.386,-84.71 89.906,-168.38c0,-29.623 -2.598,-53.528 -7.795,-65.481c-4.158,-9.874 -6.237,-20.268 -4.158,-23.386c2.079,-2.599 58.725,-5.197 133.561,-5.717c140.836,-1.039 158.505,-3.638 158.505,-24.425c0,-32.221 -54.047,-100.301 -108.095,-136.679c-16.111,-10.394 -53.009,-31.181 -81.592,-45.213c-28.583,-14.032 -56.126,-31.701 -61.843,-38.977c-37.937,-48.851 -136.679,-133.041 -177.734,-150.71c-15.591,-6.756 -31.701,-29.103 -36.378,-48.851c-4.678,-22.347 -32.221,-78.993 -52.489,-108.096c-21.308,-30.662 -65.481,-70.678 -89.387,-81.072c-49.371,-21.307 -109.135,-27.024 -156.947,-15.071Zm262.964,322.728c11.433,4.158 23.906,7.796 27.543,7.796c10.914,-0 62.883,36.378 86.789,59.764c23.906,24.426 75.355,98.222 75.355,108.615c-0,4.158 -9.874,15.072 -21.827,24.946c-42.615,32.74 -48.331,37.937 -74.835,63.922c-14.552,14.031 -35.859,40.016 -47.812,57.685c-49.89,74.836 -116.93,109.655 -178.774,93.545c-32.74,-8.835 -45.732,-15.071 -79.512,-40.536c-30.142,-22.347 -56.127,-51.969 -70.678,-80.033c-7.796,-15.59 -9.874,-30.661 -9.874,-68.599c-0,-48.331 2.078,-57.686 24.945,-104.977c23.386,-47.292 78.473,-98.742 128.363,-119.01c32.221,-12.992 108.616,-14.551 140.317,-3.118Zm-1239.98,960.909c14.551,23.386 14.031,45.732 -1.56,63.922c-10.913,12.992 -16.11,14.551 -42.094,14.031c-25.985,0 -30.662,-1.559 -41.576,-15.59c-17.669,-21.308 -17.15,-45.733 2.079,-64.962c12.992,-12.992 19.229,-15.071 43.654,-15.071c27.024,0 29.622,1.04 39.497,17.67Zm338.838,28.583c30.142,30.142 13.512,76.394 -29.103,81.591c-28.063,4.158 -45.213,-3.638 -56.646,-24.945c-19.229,-35.339 4.677,-71.717 46.252,-71.717c19.749,-0 27.024,2.598 39.497,15.071Zm-706.78,44.173c33.261,22.867 38.458,57.686 12.473,84.19c-8.835,8.835 -18.189,12.473 -33.26,12.473c-16.63,-0 -22.867,-3.118 -36.379,-18.189c-12.992,-14.552 -16.11,-23.386 -16.11,-41.056c0,-19.228 2.598,-24.945 16.11,-36.378c19.749,-16.63 33.261,-17.15 57.166,-1.04Zm995.728,49.891c29.103,10.393 37.418,55.607 15.071,81.591c-10.913,12.992 -16.11,14.551 -41.055,14.032c-33.78,-0 -41.576,-5.197 -49.891,-32.741c-13.512,-46.252 26.504,-80.032 75.875,-62.882Zm-768.103,151.23c18.189,21.307 11.433,55.087 -14.032,75.875c-4.677,3.637 -18.189,6.756 -30.142,6.756c-18.189,-0 -24.425,-2.599 -37.937,-18.19c-23.906,-27.543 -19.748,-55.087 12.472,-74.315c17.15,-10.394 57.686,-4.678 69.639,9.874Zm320.649,22.346c31.701,31.702 18.709,73.277 -27.024,85.749c-16.63,4.678 -22.346,3.638 -36.378,-5.197c-31.181,-19.228 -31.701,-52.488 -0.52,-86.788c16.63,-17.669 42.095,-15.591 63.922,6.236Zm-903.742,-6.236c27.024,11.953 33.78,21.827 31.701,46.253c-1.559,19.748 -4.157,24.425 -22.866,37.417c-25.465,17.67 -45.213,16.111 -66.521,-4.677c-17.669,-18.189 -21.827,-39.496 -10.394,-58.725c15.071,-24.945 40.017,-32.74 68.08,-20.268Zm1576.22,116.411c0,57.686 -4.157,83.67 -24.425,157.986c-4.158,15.591 -10.914,35.339 -15.071,43.134c-4.158,8.315 -7.276,17.67 -7.276,21.308c0,16.63 -49.89,101.339 -95.103,161.623c-69.639,92.505 -212.034,214.113 -312.854,267.641c-5.717,3.118 -17.15,9.874 -25.985,15.071c-8.315,5.717 -33.78,19.748 -55.607,31.182c-21.827,11.433 -44.173,22.866 -49.37,25.984c-22.347,12.473 -80.033,36.898 -86.269,36.898c-3.638,0 -9.354,2.599 -12.473,5.717c-3.118,3.118 -13.512,7.275 -22.866,9.874c-9.874,2.598 -45.733,14.032 -80.032,25.465c-67.041,22.866 -95.104,31.181 -148.112,44.693c-18.709,4.677 -45.733,11.953 -60.284,16.111c-14.552,4.157 -31.702,7.275 -37.938,7.275c-6.236,0 -24.425,3.118 -41.055,7.276c-46.253,11.953 -184.491,36.378 -229.704,41.056c-9.874,1.559 -34.299,4.677 -54.567,7.795c-106.017,16.63 -325.846,37.418 -390.808,37.418c-53.528,-0 -71.717,-7.276 -33.78,-12.993c32.221,-5.197 38.457,-6.236 89.387,-18.189c27.024,-6.236 59.765,-13.512 72.757,-15.591c12.992,-2.078 33.78,-6.236 46.772,-9.354c22.347,-5.717 58.205,-12.992 142.915,-29.622c97.702,-19.229 121.088,-24.426 142.915,-29.623c12.992,-3.118 33.78,-7.275 46.772,-9.354c12.992,-2.079 32.741,-6.236 44.174,-9.355c11.433,-3.118 39.496,-9.354 62.363,-14.031c22.866,-4.677 51.969,-11.953 64.961,-16.111c12.992,-4.157 27.544,-7.275 33.26,-7.275c5.197,-0 20.788,-3.638 34.82,-7.796c14.031,-4.157 36.898,-11.433 50.929,-15.59c14.032,-4.158 29.103,-7.796 33.78,-7.796c4.158,0 15.591,-3.118 24.945,-7.275c9.355,-3.638 31.182,-10.914 48.332,-16.111c104.977,-30.142 284.79,-110.174 368.98,-164.222c8.835,-5.197 19.229,-11.433 23.386,-13.512c10.914,-5.197 70.678,-46.253 106.537,-73.277c53.528,-40.535 174.096,-165.781 206.837,-215.152c30.142,-45.213 68.079,-116.41 76.394,-143.434c2.599,-7.796 10.394,-30.662 17.67,-50.41c7.275,-20.268 13.512,-41.056 13.512,-46.772c-0,-8.835 12.992,-70.678 18.709,-89.907c1.039,-3.638 4.157,-5.197 7.275,-3.638c3.118,2.079 5.197,28.583 5.197,62.883Zm-325.846,-4.158c10.914,11.434 14.032,19.749 14.032,38.457c-0,20.788 -2.599,25.985 -18.189,40.017c-29.623,25.984 -65.482,18.709 -83.671,-16.63c-10.394,-19.229 -6.236,-34.82 14.032,-58.206c13.512,-15.591 19.748,-18.189 37.937,-18.189c17.15,-0 24.946,3.118 35.859,14.551Zm-989.491,27.544c17.669,6.236 31.701,27.544 31.701,47.811c-0,6.756 -5.197,20.268 -11.953,30.143c-10.394,15.59 -14.551,17.669 -37.937,19.228c-21.828,1.04 -27.544,-0.52 -37.938,-11.433c-6.236,-6.756 -12.992,-21.307 -14.551,-32.741c-3.118,-24.425 11.433,-45.732 36.378,-53.008c9.355,-2.599 16.63,-5.197 17.15,-5.197c0.52,-0.52 7.795,2.079 17.15,5.197Zm-462.525,148.112c13.512,10.913 16.11,17.15 16.11,35.858c0,33.261 -19.228,54.568 -49.37,54.568c-18.19,0 -25.465,-3.118 -38.457,-16.11c-47.292,-46.773 20.787,-117.451 71.717,-74.316Zm763.426,-6.236c23.905,12.472 33.78,27.023 33.78,50.929c-0,18.189 -3.119,24.426 -17.15,36.898c-15.071,13.512 -19.748,15.071 -41.056,12.473c-37.937,-4.158 -49.37,-26.504 -36.378,-72.237c3.118,-12.473 10.394,-22.347 19.228,-27.544c17.67,-9.354 24.426,-9.354 41.576,-0.519Zm373.138,60.803c18.709,11.434 27.024,35.339 20.268,57.686c-5.717,17.67 -11.953,23.906 -32.221,30.662c-28.063,9.354 -55.087,-5.197 -66.521,-35.339c-7.275,-19.229 -7.795,-25.465 -2.598,-38.457c3.638,-8.315 10.394,-17.67 15.071,-20.268c14.551,-8.315 47.812,-5.717 66.001,5.716Zm-874.64,83.151c15.591,7.276 29.622,30.662 29.622,49.89c0,31.701 -28.063,51.45 -63.402,45.733c-17.15,-3.118 -20.788,-6.236 -30.142,-27.544c-12.473,-28.063 -10.394,-43.134 7.795,-61.323c13.512,-13.512 35.339,-16.111 56.127,-6.756Zm282.192,135.12c40.536,24.945 22.867,98.221 -23.906,98.221c-8.315,0 -21.827,-6.756 -33.78,-17.15c-17.149,-15.071 -19.748,-20.268 -20.267,-41.055c-1.04,-45.213 37.417,-64.962 77.953,-40.016Zm380.934,17.149c18.189,18.189 19.228,54.568 2.078,71.718c-16.11,15.59 -59.244,16.11 -74.835,0.519c-12.992,-12.992 -18.709,-52.488 -9.874,-68.599c12.992,-24.945 59.244,-27.024 82.631,-3.638Zm-1077.32,29.623c9.875,9.354 12.473,16.63 12.473,38.457c0,31.181 -9.354,43.134 -36.898,47.292c-26.504,4.157 -44.174,-5.197 -57.166,-29.623c-9.354,-19.228 -10.394,-24.425 -5.197,-42.095c3.638,-12.472 10.914,-22.346 17.67,-24.945c18.708,-8.315 55.087,-2.598 69.118,10.914Zm292.586,114.851c39.497,42.095 -2.598,104.458 -53.528,80.033c-34.819,-16.63 -46.772,-59.245 -23.386,-84.19c9.355,-9.874 17.15,-12.473 36.378,-12.473c21.308,0 27.024,2.599 40.536,16.63Zm-391.847,181.892c29.623,22.867 32.221,57.686 6.237,85.749c-23.386,25.985 -72.757,7.795 -80.552,-29.622c-6.756,-29.623 -0.52,-46.772 19.748,-57.686c23.386,-12.992 36.898,-12.473 54.567,1.559Z" style="fill:#62633a;fill-rule:nonzero;"/><path d="M3002.37,444.766c-48.851,23.906 -28.583,105.498 25.985,104.978c27.024,-0.52 57.166,-30.142 57.166,-56.127c-0,-19.228 -16.63,-42.614 -35.859,-50.929c-21.827,-8.835 -24.945,-8.835 -47.292,2.078Z" style="fill:#62633a;fill-rule:nonzero;"/></g></svg>